<svg xmlns="http://www.w3.org/2000/svg" width="60" height="60" viewBox="0 0 60 60">
  <g id="Group_313" data-name="Group 313" transform="translate(-785 -1192)">
    <rect id="Rectangle_806" data-name="Rectangle 806" width="60" height="60" rx="30" transform="translate(785 1192)" fill="#f72a75" opacity="0.1"/>
    <path id="Path_3666" data-name="Path 3666" d="M821.8,1204.24a.821.821,0,0,0-1.16,0l-3.48,3.48a.821.821,0,0,0,0,1.16l.58.58L802.2,1225a4.1,4.1,0,0,0,5.8,5.8l15.539-15.54.58.58a.822.822,0,0,0,1.161,0l3.48-3.48a.821.821,0,0,0,0-1.16C828.359,1210.8,822.216,1204.66,821.8,1204.24Zm-.58,6.38,2.32-2.32,1.161,1.16-2.321,2.32Zm0-4.64,1.16,1.16-2.32,2.32-1.16-1.16Zm-5.8,8.12,1.16,1.16-9.159,9.16-1.16-1.16Zm-8.579,15.54a2.461,2.461,0,0,1-3.481-3.48l1.741-1.74,1.74,1.74a.821.821,0,0,0,1.16,0l10.319-10.32a.819.819,0,0,0,0-1.16l-1.74-1.74,2.32-2.32c.439.44,2.954,2.95,3.48,3.48Zm17.86-15.54c-.389-.39-.73-.73-1.161-1.16l2.321-2.32,1.16,1.16Z" transform="translate(0 4)" fill="#f72a75"/>
  </g>
</svg>
