<svg xmlns="http://www.w3.org/2000/svg" width="60" height="60" viewBox="0 0 60 60">
  <g id="Group_312" data-name="Group 312" transform="translate(-345 -1192)">
    <rect id="Rectangle_804" data-name="Rectangle 804" width="60" height="60" rx="30" transform="translate(345 1192)" fill="#10d0a1"/>
    <path id="Path_3651" data-name="Path 3651" d="M374.763,1217.39a.92.92,0,1,0-.92-.92A.926.926,0,0,0,374.763,1217.39Z" transform="translate(0 4)" fill="#fff"/>
    <path id="Path_3652" data-name="Path 3652" d="M374.763,1217.39a.92.92,0,1,0-.92-.92A.926.926,0,0,0,374.763,1217.39Z" transform="translate(0 4)" fill="#fff"/>
    <path id="Path_3653" data-name="Path 3653" d="M374.763,1217.39a.92.92,0,1,0-.92-.92A.926.926,0,0,0,374.763,1217.39Z" transform="translate(0 4)" fill="#fff"/>
    <path id="Path_3654" data-name="Path 3654" d="M382.4,1202.54H367.671a4.6,4.6,0,0,0-4.6,4.6v18.53a4.6,4.6,0,0,0,4.6,4.6h.92v.92a2.759,2.759,0,0,0,2.761,2.76h7.364a2.759,2.759,0,0,0,2.761-2.76v-.92h.92a4.6,4.6,0,0,0,4.6-4.6v-18.53A4.6,4.6,0,0,0,382.4,1202.54Zm-2.761,28.65a.92.92,0,0,1-.92.92h-7.364a.92.92,0,0,1-.92-.92v-10.12h9.2Zm5.523-5.52a2.765,2.765,0,0,1-2.762,2.76h-.92v-7.36h.92a.92.92,0,1,0,0-1.84H367.671a.92.92,0,1,0,0,1.84h.92v7.36h-.92a2.765,2.765,0,0,1-2.762-2.76v-18.53a2.765,2.765,0,0,1,2.762-2.76H382.4a2.765,2.765,0,0,1,2.762,2.76Z" transform="translate(0 4)" fill="#fff"/>
    <path id="Path_3655" data-name="Path 3655" d="M382.564,1206.22H367.837a.919.919,0,0,0-.92.92v5.64a.919.919,0,0,0,.92.92h14.727a.919.919,0,0,0,.921-.92v-5.64A.919.919,0,0,0,382.564,1206.22Zm-.92,5.64H368.758v-3.8h12.886Z" transform="translate(0 4)" fill="#fff"/>
    <path id="Path_3656" data-name="Path 3656" d="M377.527,1226.26l-1.642-3.23a.916.916,0,0,0-1.642,0l-1.642,3.23a2.761,2.761,0,1,0,4.926,0Zm-2.463,2.17a.926.926,0,0,1-.822-1.34l.822-1.61.822,1.61a.926.926,0,0,1-.822,1.34Z" transform="translate(0 4)" fill="#fff"/>
  </g>
</svg>
