<svg xmlns="http://www.w3.org/2000/svg" width="60" height="60" viewBox="0 0 60 60">
  <g id="Group_314" data-name="Group 314" transform="translate(-1225 -1192)">
    <rect id="Rectangle_808" data-name="Rectangle 808" width="60" height="60" rx="30" transform="translate(1225 1192)" fill="#42bfff" opacity="0.1"/>
    <path id="Path_3676" data-name="Path 3676" d="M1268.88,1222.6l-7.1-5.92v-12.51a1.165,1.165,0,0,0-1.17-1.17h-9.22a1.165,1.165,0,0,0-1.17,1.17v12.51l-7.1,5.92a5.88,5.88,0,0,0,3.76,10.4h18.24a5.88,5.88,0,0,0,3.76-10.4Zm-3.76,8.06h-7.96v-1.65c4.23-.38,6.75-2.97,5.57-7.06a1.184,1.184,0,0,0-.8-.81c-2.4-.69-4.61-.17-5.94,1.94-1.34-2.1-3.54-2.6-5.92-1.92a1.152,1.152,0,0,0-.8.8c-1.18,4.1,1.35,6.67,5.55,7.05v1.65h-7.94a3.545,3.545,0,0,1-2.26-6.26l7.52-6.27a1.153,1.153,0,0,0,.42-.9v-11.89h6.88v11.89a1.153,1.153,0,0,0,.42.9l7.52,6.27A3.545,3.545,0,0,1,1265.12,1230.66Zm-7.88-4.02a4.457,4.457,0,0,1,1.36-3.01,2.583,2.583,0,0,1,2.03-.38,2.628,2.628,0,0,1-.38,2.03A4.479,4.479,0,0,1,1257.24,1226.64Zm-2.5,0a4.444,4.444,0,0,1-2.99-1.35,1.248,1.248,0,1,1,1.64-1.65A4.4,4.4,0,0,1,1254.74,1226.64Z" transform="translate(0 4)" fill="#42bfff"/>
  </g>
</svg>
