<svg xmlns="http://www.w3.org/2000/svg" width="48.204" height="48.204" viewBox="0 0 48.204 48.204">
  <g id="Group_291" data-name="Group 291" transform="translate(-423.203 -4231.188)">
    <circle id="Ellipse_125" data-name="Ellipse 125" cx="23.602" cy="23.602" r="23.602" transform="translate(423.703 4231.688)" fill="#fff" stroke="#f2f5fa" stroke-width="1"/>
    <path id="Path_965" data-name="Path 965" d="M453.981,4252.96a6.428,6.428,0,0,0,1.524-1.58,5.948,5.948,0,0,1-1.758.47,3.018,3.018,0,0,0,1.348-1.7,6.642,6.642,0,0,1-1.934.76,3.086,3.086,0,0,0-5.332,2.11,2.847,2.847,0,0,0,.088.7,8.885,8.885,0,0,1-6.358-3.22,3.078,3.078,0,0,0,.967,4.1,3.182,3.182,0,0,1-1.406-.38v.03a3.076,3.076,0,0,0,2.461,3.02,3.351,3.351,0,0,1-.791.12,3.909,3.909,0,0,1-.586-.06,3.064,3.064,0,0,0,2.871,2.14,6.181,6.181,0,0,1-3.809,1.31c-.263,0-.5-.03-.732-.05a8.747,8.747,0,0,0,13.447-7.36Z" fill="#1da1f2"/>
  </g>
</svg>
