<svg xmlns="http://www.w3.org/2000/svg" width="60" height="60" viewBox="0 0 60 60">
  <g id="Group_315" data-name="Group 315" transform="translate(-1225 -1604)">
    <rect id="Rectangle_809" data-name="Rectangle 809" width="60" height="60" rx="30" transform="translate(1225 1604)" fill="#f72a75" opacity="0.1"/>
    <path id="Path_3681" data-name="Path 3681" d="M1257.68,1616.88V1616h-1.67v.88a1.675,1.675,0,0,1-.27.82h-7.8a1.788,1.788,0,0,1-.27-.82V1616H1246v.88c0,1.83,2.1,3.7,4.52,5.87.03.03.06.05.09.08-2.38,2.19-4.61,4.61-4.61,7.17s2.23,4.98,4.61,7.17c-2.34,2.09-4.61,4.06-4.61,5.95v.88h1.67v-.88a1.788,1.788,0,0,1,.27-.82h7.8a1.675,1.675,0,0,1,.27.82v.88h1.67v-.88c0-2.06-2.89-4.42-4.61-5.95.4-.36.79-.73,1.16-1.1a7.646,7.646,0,0,0,7.53.59l5.7,5.61,3.54-3.48-5.7-5.61a7.279,7.279,0,0,0-1.47-8.4,7.616,7.616,0,0,0-9.6-.85c-.37-.37-.76-.74-1.16-1.1C1255.41,1620.74,1257.68,1618.77,1257.68,1616.88Zm-9.9,13.94h3.28a7.1,7.1,0,0,0,.38,1.64h-2.89A5.637,5.637,0,0,1,1247.78,1630.82Zm3.28-1.64h-3.28a5.637,5.637,0,0,1,.77-1.64h2.89A7.1,7.1,0,0,0,1251.06,1629.18Zm3.34,11.48h-5.12c.77-.78,1.72-1.62,2.56-2.37C1251.91,1638.35,1253.63,1639.88,1254.4,1640.66Zm-4.54-6.56h2.41a7.382,7.382,0,0,0,.71.88c-.37.37-.75.72-1.14,1.08C1251.14,1635.42,1250.46,1634.76,1249.86,1634.1Zm18.78,4.69-1.18,1.16-4.25-4.18a7.85,7.85,0,0,0,.62-.55,8.086,8.086,0,0,0,.56-.61Zm-5.99-12.85a5.675,5.675,0,0,1,0,8.12,5.916,5.916,0,0,1-8.26,0,5.675,5.675,0,0,1,0-8.12A5.916,5.916,0,0,1,1262.65,1625.94Zm-9.67-.92a7.382,7.382,0,0,0-.71.88h-2.41c.6-.66,1.28-1.32,1.98-1.96C1252.23,1624.3,1252.61,1624.65,1252.98,1625.02Zm-3.7-5.68h5.12c-.77.78-1.72,1.62-2.56,2.37C1251,1620.96,1250.05,1620.12,1249.28,1619.34Z" transform="translate(0 4)" fill="#f72a75"/>
  </g>
</svg>
