<svg xmlns="http://www.w3.org/2000/svg" width="51.826" height="58" viewBox="0 0 51.826 58">
  <g id="Group_298" data-name="Group 298" transform="translate(-471.086 -1083)">
    <path id="Path_3464" data-name="Path 3464" d="M493.174,1175.5h-6.8a2.55,2.55,0,0,0,0,5.1h6.8a2.55,2.55,0,0,0,0-5.1Zm0,3.4h-6.8a.85.85,0,0,1,0-1.7h6.8a.85.85,0,0,1,0,1.7Z" transform="translate(0 -43)"/>
    <path id="Path_3465" data-name="Path 3465" d="M522.062,1132.8H508.469v-2.55a4.256,4.256,0,0,0-4.248-4.25H475.334a4.256,4.256,0,0,0-4.248,4.25v49.5a4.256,4.256,0,0,0,4.248,4.25h28.887a4.256,4.256,0,0,0,4.248-4.25v-21.46h13.593a.856.856,0,0,0,.85-.85v-23.79A.849.849,0,0,0,522.062,1132.8Zm-34.833,23.79a2.569,2.569,0,0,1,1-2.03l10.433-7.95,2.98,2.27a4.244,4.244,0,0,0,5.149,0l2.98-2.27,10.434,7.95a2.569,2.569,0,0,1,1,2.03Zm0-18.7,10.035,7.65-10.035,7.65Zm23.948,7.65,10.036-7.65v15.3Zm9.032-9.02-14.444,11.01a2.564,2.564,0,0,1-3.089,0l-14.444-11.01a2.549,2.549,0,0,1-1-2.02h33.984A2.553,2.553,0,0,1,520.209,1136.52Zm-13.439,43.23a2.55,2.55,0,0,1-2.549,2.55H475.334a2.55,2.55,0,0,1-2.549-2.55v-49.5a2.55,2.55,0,0,1,2.549-2.55h28.887a2.55,2.55,0,0,1,2.549,2.55v2.55h-1.7v-2.55a.849.849,0,0,0-.849-.85H475.334a.85.85,0,0,0-.85.85v25.49a.85.85,0,0,0,1.7,0V1131.1h27.187v1.7H486.379a.85.85,0,0,0-.85.85v23.79a.856.856,0,0,0,.85.85h16.992v13.82H476.184v-12.98a.85.85,0,0,0-1.7,0v13.83a.848.848,0,0,0,.85.84h28.887a.847.847,0,0,0,.849-.84v-14.67h1.7Z" transform="translate(0 -43)"/>
    <path id="Path_3466" data-name="Path 3466" d="M521,1156.5H487v-22h34Z" transform="translate(0 -43)" fill="none" stroke="#10d0a1" stroke-width="2"/>
  </g>
</svg>
