<svg xmlns="http://www.w3.org/2000/svg" xmlns:xlink="http://www.w3.org/1999/xlink" width="56" height="56" viewBox="0 0 56 56">
  <defs>
    <clipPath id="clip-path">
      <rect id="Rectangle_757" data-name="Rectangle 757" width="56" height="56" transform="translate(462 1470)" fill="#fff"/>
    </clipPath>
  </defs>
  <g id="Group_249" data-name="Group 249" transform="translate(-462 -1470)" clip-path="url(#clip-path)">
    <path id="Path_3469" data-name="Path 3469" d="M517.065,1520.4h-2.8v-17.73a.933.933,0,0,0-1.7-.54L499.5,1520.8a.936.936,0,0,0,.764,1.47H512.4v2.8a.934.934,0,0,0,1.867,0v-2.8h2.8a.935.935,0,0,0,0-1.87Zm-4.667,0H502.057l10.341-14.77Z" fill="#10d0a1"/>
    <path id="Path_3470" data-name="Path 3470" d="M500.266,1524.13h-11.05l10.273-12.09c.023-.03.045-.06.065-.09a6.486,6.486,0,0,0-1.465-8.81,7.462,7.462,0,0,0-11.823,6.06.933.933,0,0,0,1.866,0,5.6,5.6,0,0,1,8.867-4.55,4.608,4.608,0,0,1,1.027,6.22l-11.538,13.59a.934.934,0,0,0,.711,1.54h13.067a.935.935,0,0,0,0-1.87Z" fill="#10d0a1"/>
    <path id="Path_3471" data-name="Path 3471" d="M487.221,1519.48a.931.931,0,0,0-.9-.96h0a23.315,23.315,0,0,1-22.424-22.39h3.7a.93.93,0,1,0,0-1.86h-3.7a23.279,23.279,0,0,1,22.368-22.37v2.77a.933.933,0,0,0,1.866,0v-2.77a23.294,23.294,0,0,1,22.356,21.93l-3.64-3.64a.942.942,0,0,0-1.32.03.926.926,0,0,0,0,1.29l5.21,5.21a.936.936,0,0,0,.367.27l.111.03a1.349,1.349,0,0,0,.2.05h.054a.763.763,0,0,0,.209-.05.439.439,0,0,0,.113-.02.788.788,0,0,0,.337-.21l5.281-5.28a.934.934,0,0,0-1.32-1.32l-3.73,3.73a25.162,25.162,0,0,0-25.093-23.91c-.023,0-.043-.01-.066-.01s-.043.01-.066.01a25.159,25.159,0,0,0-25.121,25.12c0,.03-.013.05-.013.07s.012.04.013.07a25.172,25.172,0,0,0,24.241,25.11h.034A.929.929,0,0,0,487.221,1519.48Z" fill="#171151"/>
    <path id="Path_3472" data-name="Path 3472" d="M499.74,1482.66a.94.94,0,0,0-1.319,0l-10.03,10.03a2.907,2.907,0,0,0-2.381,0l-4.749-4.75a.933.933,0,0,0-1.319,1.32l4.739,4.74a2.795,2.795,0,0,0,4.5,3.18,2.767,2.767,0,0,0,.539-3.18l10.02-10.02A.932.932,0,0,0,499.74,1482.66Zm-11.879,13.2h0a.961.961,0,0,1-1.32,0,.933.933,0,1,1,1.32,0Z" fill="#171151"/>
  </g>
</svg>
