<svg xmlns="http://www.w3.org/2000/svg" width="60" height="60" viewBox="0 0 60 60">
  <g id="Group_316" data-name="Group 316" transform="translate(-345 -1604)">
    <rect id="Rectangle_805" data-name="Rectangle 805" width="60" height="60" rx="30" transform="translate(345 1604)" fill="#0e63ff" opacity="0.1"/>
    <path id="Path_3661" data-name="Path 3661" d="M381.277,1623.74l-.419,1.36a17.975,17.975,0,0,1-12.75,12.09l-.411.1a1.341,1.341,0,0,1-.2.02.806.806,0,0,1-.787-.61.814.814,0,0,1,.591-.99l.411-.1a16.333,16.333,0,0,0,11.59-10.99l.419-1.36a.813.813,0,1,1,1.554.48Zm5.7,5.64a.815.815,0,0,1-.787.62,1.328,1.328,0,0,1-.2-.02l-2.46-.62a20.549,20.549,0,0,1-1.466,2.6l2.135,1.43a.807.807,0,0,1-.451,1.48.822.822,0,0,1-.45-.13l-2.177-1.45a21.25,21.25,0,0,1-3.323,3.42l1.65,1.65a.812.812,0,0,1,0,1.15.808.808,0,0,1-1.149,0l-1.8-1.8a21.514,21.514,0,0,1-2.383,1.44l.655,1.97a.821.821,0,0,1-.513,1.03,1.152,1.152,0,0,1-.257.04.818.818,0,0,1-.771-.56l-.594-1.78c-.509.21-1.024.42-1.552.59l-2.04.68a4.68,4.68,0,0,1-.731.18v.89a.813.813,0,0,1-1.625,0v-.89a4.783,4.783,0,0,1-2.454-1.2l-1.034,1.04a.808.808,0,0,1-1.149,0,.814.814,0,0,1,0-1.15l1.169-1.17a4.717,4.717,0,0,1-.343-.78,4.788,4.788,0,0,1-.176-.73h-.888a.81.81,0,1,1,0-1.62h.885a4.856,4.856,0,0,1,1.424-2.69l-.641-1.93a.811.811,0,1,1,1.54-.51l.5,1.49a3.388,3.388,0,0,1,.44-.17l2.042-.69c.365-.12.718-.27,1.066-.42l-.711-2.14a.821.821,0,0,1,.513-1.03.811.811,0,0,1,1.027.52l.622,1.86a11.418,11.418,0,0,0,2.533-2.22l-1.249-1.25a.812.812,0,0,1,0-1.15.825.825,0,0,1,1.148,0l1.083,1.09A11.2,11.2,0,0,0,375.2,1624l.318-.95-1.964-1.31a.812.812,0,1,1,.9-1.35l1.639,1.09a4.834,4.834,0,0,1,1.849-2.1l-.6-1.2a.813.813,0,0,1,1.453-.73l.65,1.3a4.809,4.809,0,0,1,2.6.13,4.865,4.865,0,0,1,.645.28l1.2-1.8a.812.812,0,0,1,1.352.9l-1.246,1.87a4.784,4.784,0,0,1,.866,1.19,4.862,4.862,0,0,1,.513,2.18h.815a.809.809,0,0,1,.813.81.818.818,0,0,1-.813.82H385.1l-.653,1.96c-.086.25-.184.5-.279.75l2.22.56A.808.808,0,0,1,386.975,1629.38Zm-4.073-2.81.681-2.04a3.251,3.251,0,0,0-2.056-4.11,3.324,3.324,0,0,0-1.03-.17,3.36,3.36,0,0,0-1.45.34,3.246,3.246,0,0,0-1.63,1.88l-.681,2.05a13.069,13.069,0,0,1-8.222,8.22l-2.042.68a3.248,3.248,0,0,0,1.028,6.33,3.293,3.293,0,0,0,1.029-.17l2.04-.68A19.6,19.6,0,0,0,382.9,1626.57Z" transform="translate(0 4)" fill="#0e63ff"/>
  </g>
</svg>
