<svg xmlns="http://www.w3.org/2000/svg" width="48.204" height="48.204" viewBox="0 0 48.204 48.204">
  <g id="Group_290" data-name="Group 290" transform="translate(-360 -4231.188)">
    <circle id="Ellipse_126" data-name="Ellipse 126" cx="23.602" cy="23.602" r="23.602" transform="translate(360.5 4231.688)" fill="#fff" stroke="#f2f5fa" stroke-width="1"/>
    <path id="Path_966" data-name="Path 966" d="M391.135,4252.17a1.981,1.981,0,0,0-1.406-1.43,54.467,54.467,0,0,0-12.51,0,1.981,1.981,0,0,0-1.406,1.43,21.452,21.452,0,0,0,0,7.74,1.942,1.942,0,0,0,1.406,1.4,61.326,61.326,0,0,0,12.51,0,1.942,1.942,0,0,0,1.406-1.4,21.452,21.452,0,0,0,0-7.74Zm-9.287,6.24v-4.74l4.16,2.37Z" fill="red"/>
  </g>
</svg>
