<svg xmlns="http://www.w3.org/2000/svg" width="41.836" height="63" viewBox="0 0 41.836 63">
  <g id="Group_299" data-name="Group 299" transform="translate(-468.582 -737)">
    <path id="Path_3458" data-name="Path 3458" d="M489.619,784.922a1.231,1.231,0,1,0,1.221,1.241A1.232,1.232,0,0,0,489.619,784.922Z" transform="translate(0 -43)" fill="#10d0a1"/>
    <path id="Path_3459" data-name="Path 3459" d="M489.565,792.3a8.614,8.614,0,1,0-.129,17.227h.065a8.614,8.614,0,0,0,.064-17.227Zm-.064,14.766h-.047a6.153,6.153,0,0,1,.045-12.3h.047a6.153,6.153,0,0,1-.045,12.3Z" transform="translate(0 -43)" fill="#10d0a1"/>
    <path id="Path_3460" data-name="Path 3460" d="M494.869,785.856a1.23,1.23,0,0,0-.823,2.319,13.521,13.521,0,0,1,8.989,12.845,1.231,1.231,0,0,0,1.221,1.24h.01a1.23,1.23,0,0,0,1.23-1.221A15.983,15.983,0,0,0,494.869,785.856Z" transform="translate(0 -43)" fill="#10d0a1"/>
    <path id="Path_3461" data-name="Path 3461" d="M497.05,826.32c8.185-10.535,13.3-16.028,13.368-25.245a20.918,20.918,0,0,0-41.835-.314c-.071,9.467,5.139,14.953,13.38,25.557-8.2,1.225-13.38,4.3-13.38,8.069,0,2.522,2.331,4.785,6.564,6.372a47.087,47.087,0,0,0,28.707,0c4.233-1.587,6.564-3.85,6.564-6.372C510.418,830.624,505.241,827.546,497.05,826.32Zm-26.006-25.54a18.457,18.457,0,1,1,36.913.277c-.065,8.753-5.489,14.147-14.149,25.435-1.544,2.013-2.963,3.916-4.306,5.777-1.338-1.862-2.729-3.731-4.3-5.777C476.188,814.73,470.977,809.744,471.044,800.78ZM489.5,840.539c-10.563,0-18.456-3.248-18.456-6.152,0-2.154,4.718-4.875,12.652-5.817,1.754,2.3,3.291,4.392,4.8,6.527a1.231,1.231,0,0,0,1,.52h0a1.228,1.228,0,0,0,1-.519c1.494-2.107,3.074-4.249,4.813-6.527,7.926.944,12.64,3.663,12.64,5.816C507.957,837.291,500.064,840.539,489.5,840.539Z" transform="translate(0 -43)"/>
  </g>
</svg>
