<svg xmlns="http://www.w3.org/2000/svg" width="48.204" height="48.204" viewBox="0 0 48.204 48.204">
  <g id="Group_293" data-name="Group 293" transform="translate(-549.611 -4231.188)">
    <circle id="Ellipse_123" data-name="Ellipse 123" cx="23.602" cy="23.602" r="23.602" transform="translate(550.111 4231.688)" fill="#fff" stroke="#f2f5fa" stroke-width="1"/>
    <path id="Path_963" data-name="Path 963" d="M579.863,4257.66a6.186,6.186,0,0,0,.146-1.28,6.011,6.011,0,0,0-6.006-6.01,6.08,6.08,0,0,0-1.289.15,3.237,3.237,0,0,0-1.992-.71,3.3,3.3,0,0,0-3.281,3.28,3.243,3.243,0,0,0,.674,2.03,5.965,5.965,0,0,0,7.148,7.14,3.209,3.209,0,0,0,1.992.68,3.278,3.278,0,0,0,3.281-3.28A3.051,3.051,0,0,0,579.863,4257.66Zm-5.684,2.7c-1.934,0-3.545-.85-3.545-1.9a.837.837,0,0,1,.879-.91c.908,0,1,1.32,2.578,1.32.733,0,1.231-.33,1.231-.77,0-.55-.469-.64-1.231-.82-1.816-.47-3.457-.64-3.457-2.55,0-1.75,1.729-2.4,3.193-2.4,1.612,0,3.252.65,3.252,1.64a.878.878,0,0,1-.878.94c-.821,0-.85-1-2.2-1-.761,0-1.23.21-1.23.68,0,.55.615.61,2.021.96,1.2.27,2.666.77,2.666,2.26C577.46,4259.54,575.79,4260.36,574.179,4260.36Z" fill="#00a6e4"/>
  </g>
</svg>
