<svg xmlns="http://www.w3.org/2000/svg" width="13.979" height="14.01" viewBox="0 0 13.979 14.01">
  <path id="Path_242" data-name="Path 242" d="M65,4363.67a1.492,1.492,0,0,0,.383.93l5.769,5.77a1.3,1.3,0,0,0,1.859,0l5.578-5.58a1.3,1.3,0,0,0,0-1.86l-5.769-5.77a1.511,1.511,0,0,0-.93-.41H66.311A1.311,1.311,0,0,0,65,4358.06Zm3.063-5.17a1.329,1.329,0,0,1,1.313,1.31,1.31,1.31,0,0,1-1.312,1.31,1.293,1.293,0,0,1-1.312-1.31A1.311,1.311,0,0,1,68.061,4358.5Z" transform="translate(-64.998 -4356.75)" fill="#fff"/>
</svg>
